<svg xmlns="http://www.w3.org/2000/svg" xml:space="preserve" height="327.17" viewBox="0 0 970.76936 327.15246" width="970.75" version="1.1" y="0px" x="0px"
    enable-background="new 0 0 800 270"><g transform="translate(-160.97 -381.01)"><g fill="#00d4ff"><path d="m190.97 411.23c36.182-0.28732 72.383-0.26904 108.57 0-1.1252 4.6611-2.3151 9.2896-3.4745 13.932-0.58704 33.828-0.0966 67.677-0.25928 101.5 0.35834 16.432-1.7134 33.338 3.7681 49.146-36.185 0.27034-72.386 0.20374-108.59 0.0326 1.7929-6.6567 3.8451-13.394 3.7008-20.401 0.11496-41.122 0.033-82.249 0.0501-123.39 0.14554-7.1438-1.8272-14.053-3.7668-20.824z"/><path d="m349.07 411.26c35.142-0.3043 70.299-0.3043 105.44 0-6.0808 18.697-3.0502 38.675-3.7179 58.013 11.886-15.672 22.912-32.039 34.586-47.896 2.4142-2.9555 3.4256-6.6867 4.4199-10.337 34.034 0.20243 68.065-0.23639 102.08 0.2194-14.335 21.297-28.897 42.442-43.865 63.248 0.45618 2.501 1.0273 5.049 2.3946 7.2117 18.982 31.462 38.664 62.471 57.321 94.138-37.931 0.28601-75.877-0.0196-113.81 0.1528-4.0102 0.0313-8.007-0.32128-11.968-0.86066 0.81452-4.524 2.5414-9.8107-0.45618-13.901-10.274-16.009-20.22-32.24-30.688-48.114-0.0832 14.067-0.17855 28.136 0.0318 42.188 0.0514 6.8722 1.7599 13.53 3.669 20.064-8.561 0.94554-17.171 0.50673-25.747 0.57203-26.581-0.047-53.159 0.1528-79.738-0.10056 1.8235-7.2287 3.976-14.506 3.7803-22.058-0.0306-40.601 0.0196-81.218-0.0306-121.82 0.0636-7.089-1.9739-13.931-3.7045-20.72z"/><path d="m640.9 420.26c-0.7656-2.9894-1.3539-6.0115-1.8895-9.0519 60.173-0.30299 120.35-0.0522 180.51-0.13582 0.0477 16.365 0.27762 32.749-0.14799 49.098-12.228-5.288-25.65-3.6659-38.548-3.918-14.385 0.13452-28.766-0.30429-43.147 0.26904-0.0966 4.4078-0.0489 8.8155 0.0966 13.223 13.81 0.32128 27.624 0.0849 41.434 0.1528 7.5508-0.13452 15.248 0.64255 22.67-1.2825 1.4321 14.61 0.30819 29.337 0.65186 44.012-21.543-1.5359-43.213-0.7627-64.804-0.50542-0.12719 4.6454-0.12719 9.2713-0.0318 13.914 13.828 0.44143 27.672 0.11885 41.516 0.20243 13.453-0.21941 27.264 1.2982 40.265-3.2572 0.19079 17.19 0.21158 34.38-0.0208 51.56-50.909-0.13582-101.83-0.017-152.74-0.0509-9.5064-0.31736-19.144 0.90897-28.553-0.99517 3.9955-8.2761 3.6201-17.682 4.4835-26.649 0.0966-34.286-0.0318-68.587 0.066-102.87 0.10028-7.9392-0.97596-15.826-1.81-23.713z"/></g><path fill="none" d="m958.71 487.05c-2.9181 8.3767-6.7008 16.415-9.5052 24.826 7.3686 0.16978 14.754 0.18676 22.144-0.0157-2.8875-8.5961-6.6042-16.855-9.7864-25.318-0.70201 0.12015-2.1341 0.39049-2.852 0.50803z"/><path fill="#00d4ff" d="m1101.7 574.48c-19.702-49.288-40.102-98.263-59.768-147.53-2.1525-4.6624-0.636-9.7976 0.4892-14.491-8.9047-0.43751-17.823-0.23508-26.727-0.26903-14.153 0.034-28.293-0.017-42.43 0.017-25.292 0.0992-50.598-0.2377-75.874 0.15149 0.88056 4.2197 2.7236 8.7136 1.1423 13.025-17.759 49.755-35.973 99.34-53.619 149.13 28.881-0.0718 57.743-0.0157 86.623-0.034-0.60416-9.1054 3.2128-17.465 5.5598-26.009 0.48675-0.96513 1.4517-2.8719 1.9262-3.8357 15.831-0.65953 31.747-0.7405 47.582 0.0483 3.2434 9.6461 7.7281 19.339 7.157 29.794 35.973-0.017 71.963 0.0157 107.93-0.001zm-152.49-62.61c2.8043-8.4093 6.5883-16.449 9.5052-24.826 0.7179-0.11754 2.1512-0.38789 2.852-0.50804 3.1822 8.4616 6.899 16.722 9.7864 25.318-7.3882 0.20112-14.774 0.18545-22.144 0.0157z"/><g stroke="#00d4ff" transform="matrix(.54020 0 0 .54551 252.43 132.4)"><g stroke="#00d4ff"><g fill="#00d4ff" transform="matrix(1.2216,0,0,1.2219,-339.24,-113.77)"><path stroke="#00d4ff" fill="#00d4ff" d="m1534.9 537.75q2.3633 0 3.3789-0.8789 1.0352-0.87891 1.0352-2.8906 0-1.9922-1.0352-2.8516-1.0156-0.85938-3.3789-0.85938h-3.1641v7.4805h3.1641zm-3.1641 5.1953v11.035h-7.5195v-29.16h11.484q5.7617 0 8.4375 1.9336 2.6953 1.9336 2.6953 6.1133 0 2.8906-1.4062 4.7461-1.3868 1.8555-4.1993 2.7344 1.543 0.35156 2.7539 1.6016 1.2305 1.2305 2.4805 3.75l4.082 8.2812h-8.0078l-3.5547-7.2461q-1.0742-2.1875-2.1875-2.9883-1.0937-0.80078-2.9296-0.80078h-2.129z"/></g><path stroke-linejoin="round" stroke-width="4.2992" fill="none" d="m1570 545.31a33.588 32.442 0 0 1 -33.588 32.442 33.588 32.442 0 0 1 -33.588 -32.442 33.588 32.442 0 0 1 33.588 -32.442 33.588 32.442 0 0 1 33.588 32.442z"/></g></g></g><g fill="#00d4ff" transform="matrix(1.3301 0 0 1 -194.37 0)"><polygon points="64.286 402.86 71.79 402.86 76.067 422.06 81.212 402.86 88.382 402.86 93.264 422.06 97.753 402.86 105.08 402.86 97.575 430.74 89.605 430.74 84.62 412.58 79.745 430.74 71.794 430.74" transform="matrix(1.8209,0,0,3.016,50.745,-996.3)"/><path d="m297.74 302.83h-13.522l-3.5345-17.001h-18.785l-3.5363 17.001h-13.193l18.752-84.083h15.066l18.752 84.083zm-20.205-32.413-6.2458-30.124-6.2459 30.124h12.492z"/><polygon points="139.65 402.86 146.84 402.86 146.84 425.35 159.76 425.35 159.76 430.74 139.65 430.74" transform="matrix(1.8209,0,0,3.016,50.745,-996.3)"/><polygon points="171.27 415.49 181.23 402.86 189.56 402.86 178.66 415.76 190.1 430.74 181.27 430.74 172.94 419.58 171.27 421.65 171.27 430.74 164.08 430.74 164.08 402.86 171.27 402.86" transform="matrix(1.8209,0,0,3.016,50.745,-996.3)"/><polygon points="228.56 408.26 219.86 408.26 219.86 430.74 212.66 430.74 212.66 408.26 203.96 408.26 203.96 402.86 228.56 402.86" transform="matrix(1.8209,0,0,3.016,50.745,-996.3)"/><polygon points="240.08 413.07 250.69 413.07 250.69 402.86 257.88 402.86 257.88 430.74 250.69 430.74 250.69 418.46 240.08 418.46 240.08 430.74 232.89 430.74 232.89 402.86 240.08 402.86" transform="matrix(1.8209,0,0,3.016,50.745,-996.3)"/><polygon points="284.22 418.46 272.15 418.46 272.15 425.35 285.16 425.35 285.16 430.74 265 430.74 265 402.86 285.16 402.86 285.16 408.26 272.15 408.26 272.15 413.07 284.22 413.07" transform="matrix(1.8209,0,0,3.016,50.745,-996.3)"/><path d="m645.49 276.4c0 8.282-2.1177 15.014-6.3569 20.186-4.2392 5.1785-9.9952 7.7663-17.268 7.7663-4.2046 0-7.8701-0.61227-10.995-1.8368-3.1248-1.2215-6.0529-2.7747-8.7788-4.6567v-20.162h1.4312c2.7041 3.577 5.7342 6.3276 9.0866 8.2428 3.3523 1.9212 6.5736 2.8803 9.6656 2.8803 0.79758 0 1.8428-0.11128 3.1375-0.33744 1.2966-0.22338 2.3527-0.60018 3.1703-1.131 1.0015-0.67558 1.8246-1.5231 2.471-2.5395 0.64826-1.0164 0.97059-2.5244 0.97059-4.518 0-1.8458-0.47164-3.4352-1.4149-4.7713-0.94326-1.333-2.3217-2.3616-4.139-3.0793-1.9102-0.75101-3.9278-1.4568-6.0528-2.1173-2.125-0.65749-4.119-1.4959-5.9836-2.5123-4.272-2.2952-7.3457-5.4107-9.2194-9.3496-1.8756-3.9329-2.8152-8.8158-2.8152-14.649 0-7.8296 2.1196-14.221 6.3588-19.173 4.2392-4.9493 9.6874-7.4254 16.35-7.4254 3.3414 0 6.641 0.53684 9.9023 1.6106 3.2613 1.0736 6.0856 2.4188 8.471 4.0384v19.369h-1.3985c-2.0449-2.7084-4.5524-4.9764-7.5187-6.8071-2.9663-1.8216-5.9946-2.7385-9.0829-2.7385-1.0943 0-2.1779 0.12375-3.2558 0.36798-1.0798 0.24453-2.1196 0.70577-3.1211 1.3844-0.88501 0.56705-1.648 1.4235-2.2835 2.5726-0.63915 1.1461-0.95419 2.452-0.95419 3.9239 0 2.2198 0.51171 3.9238 1.5332 5.1091 1.0252 1.1883 2.9554 2.2681 5.7979 3.2452 1.8628 0.64242 3.6546 1.2607 5.3682 1.8639 1.7153 0.6032 3.5636 1.4326 5.5411 2.4852 3.8877 2.1082 6.7557 4.9764 8.6094 8.6107 1.8465 3.6343 2.7733 8.3543 2.7733 14.148"/><polygon points="353.35 408.26 344.64 408.26 344.64 430.74 337.45 430.74 337.45 408.26 328.75 408.26 328.75 402.86 353.35 402.86" transform="matrix(1.8209,0,0,3.016,50.745,-996.3)"/><path d="m751.42 260.81c0 13.403-2.3181 24.047-6.9542 31.934-4.6379 7.8869-11.046 11.832-19.229 11.832-8.1597 0-14.558-3.945-19.195-11.832-4.638-7.8869-6.956-18.53-6.956-31.934 0-13.512 2.318-24.191 6.956-32.045 4.6361-7.8476 11.035-11.775 19.195-11.775 8.136 0 14.533 3.9299 19.195 11.775 4.6598 7.8507 6.9888 18.53 6.9888 32.045m-17.354 21.29c1.2728-2.5636 2.2161-5.5827 2.8298-9.0661 0.6155-3.4805 0.92321-7.5763 0.92321-12.278 0-5.0458-0.35326-9.3405-1.058-12.878-0.70656-3.5378-1.6261-6.4-2.7624-8.5836-1.1599-2.259-2.4947-3.8967-4.0061-4.9131-1.5096-1.0164-3.0847-1.5231-4.7235-1.5231-1.6589 0-3.2212 0.48856-4.6871 1.4628-1.4658 0.98022-2.8133 2.5998-4.0407 4.8588-1.1363 2.1082-2.0613 5.0156-2.777 8.7223-0.71745 3.7097-1.0743 8.0105-1.0743 12.902 0 5.0096 0.34596 9.2712 1.0398 12.791 0.69198 3.5197 1.6079 6.3909 2.7442 8.6077 1.1362 2.2228 2.4655 3.8605 3.9897 4.9161 1.5223 1.0556 3.1247 1.5804 4.8055 1.5804 1.6825 0 3.2868-0.53686 4.8091-1.6106 1.5224-1.0646 2.8516-2.7325 3.9879-4.9885"/><path d="m810.3 302.83h-15.988l-13.812-30.833h-6.0656v30.833h-13.023v-84.083h21.957c3.0009 0 5.5794 0.28344 7.739 0.84745 2.1615 0.56401 4.1827 1.7886 6.0692 3.6705 1.9102 1.882 3.427 4.3189 4.5505 7.3138 1.1254 2.9918 1.6898 6.7468 1.6898 11.265 0 6.213-0.87037 11.271-2.6094 15.186-1.739 3.9208-4.221 7.1751-7.4495 9.7719l16.942 36.029zm-20.422-58.333c0-2.1082-0.26216-3.9148-0.7848-5.4198-0.5226-1.508-1.4203-2.6963-2.6932-3.5619-0.88496-0.60014-1.9193-0.96516-3.1029-1.0978-1.18-0.1357-2.5548-0.19921-4.1244-0.19921h-4.7399v22.644h4.0243c2.0886 0 3.8386-0.1691 5.2498-0.50673 1.4076-0.34056 2.5912-1.1099 3.5454-2.3163 0.9105-1.1702 1.5733-2.4551 1.9958-3.8665 0.42066-1.4115 0.63001-3.3025 0.63001-5.6762"/><polygon points="439.5 418.46 427.42 418.46 427.42 425.35 440.43 425.35 440.43 430.74 420.27 430.74 420.27 402.86 440.43 402.86 440.43 408.26 427.42 408.26 427.42 413.07 439.5 413.07" transform="matrix(1.8209,0,0,3.016,50.745,-996.3)"/></g></svg>
